<svg xmlns="http://www.w3.org/2000/svg" width="16" height="16" viewBox="0 0 40 40">
  <path fill-rule="evenodd" fill="#afb1b3" d="m 21.218286,2.1915916 a 4.0000001,4.0326177 0 0 0 -2.436571,0 L 6.7817144,6.0629046 A 4.0000001,4.0326177 0 0 0 4,9.904261 v 8.111322 C 4,21.6242 4.7314286,25.348034 6.9782857,28.804564 9.225143,32.256484 12.886857,35.286709 18.48,37.687844 a 3.8857143,3.9174 0 0 0 3.04,0 c 5.593143,-2.401135 9.254858,-5.43136 11.501715,-8.88328 C 35.268571,25.348034 36,21.6242 36,18.015583 V 9.904261 A 4.0000001,4.0326177 0 0 0 33.218286,6.0629046 Z M 19.824001,5.484512 a 0.57142858,0.57608824 0 0 1 0.349714,0 l 12,3.871313 a 0.57142858,0.57608824 0 0 1 0.397714,0.548436 v 8.111322 c 0,3.129311 -0.628571,6.143405 -2.416,8.894803 -1.792,2.751397 -4.848,5.392185 -9.979429,7.597451 a 0.45714286,0.46087059 0 0 1 -0.351999,0 C 14.692571,32.304876 11.636572,29.659479 9.8445715,26.908081 8.0571429,24.158988 7.4285714,21.149503 7.4285714,18.015583 V 9.904261 A 0.57142858,0.57608824 0 0 1 7.8262858,9.3581293 L 19.826286,5.4868163 Z m 3.604571,11.378895 a 3.4285714,3.4565294 0 0 1 -1.714286,2.995658 v 5.645665 a 1.714286,1.728265 0 0 1 -3.428572,0 v -5.645665 a 3.4285714,3.4565294 0 1 1 5.142858,-2.995658 z"/>
</svg>
